<?xml version="1.0" standalone="no"?>
<!DOCTYPE svg PUBLIC "-//W3C//DTD SVG 20010904//EN"
 "http://www.w3.org/TR/2001/REC-SVG-20010904/DTD/svg10.dtd">
<svg version="1.0" xmlns="http://www.w3.org/2000/svg"
 width="3000.000000pt" height="3000.000000pt" viewBox="0 0 3000.000000 3000.000000"
 preserveAspectRatio="xMidYMid meet">
<metadata>
Created by potrace 1.16, written by Peter Selinger 2001-2019
</metadata>
<g transform="translate(0.000000,3000.000000) scale(0.100000,-0.100000)"
fill="#000000" stroke="none">
<path d="M16956 20664 c-154 -24 -280 -45 -282 -46 -3 -4 -353 -3262 -350
-3265 1 -1 217 32 480 73 263 41 482 74 487 74 23 0 -3 27 -171 178 -119 108
-180 169 -180 183 0 24 298 2783 305 2822 2 15 1 27 -3 26 -4 -1 -133 -21
-286 -45z"/>
<path d="M14588 20219 c-161 -149 -299 -277 -306 -284 -10 -9 -27 -139 -56
-421 l-41 -408 -35 -8 c-19 -4 -111 -19 -205 -33 -534 -84 -778 -227 -869
-510 -8 -27 -38 -228 -65 -445 -91 -719 -99 -874 -49 -981 69 -150 218 -228
437 -229 91 0 267 32 440 80 123 35 122 35 115 15 -4 -8 -2 -15 2 -15 37 2
555 88 561 93 6 7 373 3409 368 3415 -2 2 -135 -119 -297 -269z m-518 -2166
c-36 -326 -69 -595 -72 -598 -8 -8 -488 -68 -494 -62 -7 7 127 1159 135 1169
5 5 492 87 497 84 1 -1 -29 -268 -66 -593z"/>
<path d="M19656 19828 c-8 -37 -696 -6762 -692 -6765 4 -4 1086 163 1091 169
3 2 85 746 184 1652 99 906 181 1650 184 1652 7 8 986 158 992 153 2 -3 -64
-697 -149 -1544 l-153 -1538 496 -930 c484 -908 496 -929 503 -891 4 21 19
179 33 349 15 171 71 776 126 1345 239 2486 305 3241 316 3620 5 193 4 209
-16 270 -41 122 -114 205 -223 255 -100 46 -172 59 -323 58 -203 0 -429 -41
-1130 -202 -214 -49 -390 -89 -391 -88 -1 1 33 333 77 737 43 404 78 742 76
751 -2 14 -980 969 -992 969 -3 0 -7 -10 -9 -22z"/>
<path d="M18165 19720 c-474 -75 -469 -74 -541 -105 -108 -48 -175 -141 -219
-306 l-17 -65 69 -66 c37 -36 121 -114 186 -174 133 -122 133 -111 2 -139
-186 -40 -300 -128 -335 -257 -29 -108 -82 -516 -87 -672 -6 -196 3 -254 48
-309 50 -61 99 -80 214 -85 124 -5 248 16 574 98 129 33 239 56 245 53 6 -4
116 -85 245 -181 128 -95 237 -170 241 -165 7 8 22 140 85 763 111 1095 136
1466 103 1540 -22 51 -74 97 -135 120 -92 34 -195 27 -678 -50z m247 -565 c-8
-88 -16 -162 -19 -164 -4 -5 -476 -80 -480 -76 -7 5 31 311 39 320 6 7 468 86
474 81 1 -1 -5 -73 -14 -161z m-65 -637 c-3 -18 -14 -115 -23 -215 -18 -182
-18 -182 -44 -188 -75 -15 -484 -74 -488 -70 -7 7 40 409 49 419 7 8 432 81
493 85 15 1 17 -4 13 -31z"/>
<path d="M15625 19330 c-449 -71 -522 -88 -607 -142 -120 -75 -149 -141 -182
-403 -98 -776 -146 -1325 -127 -1431 15 -81 53 -132 122 -167 100 -50 131 -48
714 42 286 44 533 84 549 89 29 7 27 9 -145 166 -96 88 -189 173 -206 190
l-33 30 -220 -34 c-121 -18 -221 -32 -223 -29 -6 7 39 418 46 426 4 4 203 37
443 74 l436 68 55 48 c133 116 121 97 137 208 9 55 27 172 41 260 31 193 43
406 26 487 -9 41 -23 68 -51 101 -55 62 -102 79 -230 83 -91 3 -163 -6 -545
-66z m250 -447 c-3 -21 -12 -93 -19 -161 -8 -68 -15 -125 -17 -127 -5 -4 -472
-76 -475 -72 -1 1 5 75 13 164 l16 161 171 27 c94 14 191 30 216 35 25 4 57 8
73 9 26 1 27 -1 22 -36z"/>
<path d="M11941 17589 c-310 -49 -567 -92 -570 -95 -7 -7 -121 -1107 -115
-1113 2 -3 262 35 577 84 l572 88 54 516 c29 284 55 537 58 564 3 26 2 46 -3
46 -5 -1 -263 -41 -573 -90z"/>
<path d="M17760 17040 c-970 -152 -1059 -167 -1159 -200 -276 -90 -450 -247
-524 -470 -14 -43 -34 -146 -46 -240 -134 -1048 -188 -1506 -235 -2000 -62
-643 -72 -946 -36 -1084 50 -197 179 -320 380 -362 146 -31 255 -19 1174 125
462 72 874 140 915 152 358 97 587 366 682 799 42 193 59 357 84 800 9 151 20
311 24 355 5 44 7 81 6 83 -2 2 -1164 -784 -1176 -797 -4 -3 -13 -97 -21 -209
-9 -111 -17 -205 -20 -207 -8 -8 -928 -148 -934 -142 -6 6 235 2399 242 2406
4 5 937 151 940 148 1 -1 -7 -78 -18 -170 -11 -95 -17 -172 -12 -176 5 -5 239
-76 519 -160 281 -83 518 -154 528 -157 14 -4 17 1 17 28 0 18 20 172 45 342
24 170 50 368 56 440 14 153 6 378 -15 453 -37 137 -107 223 -229 283 -110 54
-192 70 -357 69 -120 -1 -212 -13 -830 -109z"/>
<path d="M14460 16520 c-970 -152 -1059 -167 -1159 -200 -276 -90 -450 -247
-524 -470 -14 -43 -34 -146 -46 -240 -134 -1048 -188 -1506 -235 -2000 -62
-643 -72 -946 -36 -1084 50 -197 179 -320 380 -362 146 -31 255 -19 1174 125
462 72 874 140 915 152 358 97 587 366 682 799 42 193 59 357 84 800 9 151 20
311 24 355 5 44 7 81 6 83 -2 2 -1164 -784 -1176 -797 -4 -3 -13 -97 -21 -209
-9 -111 -17 -205 -20 -207 -8 -8 -928 -148 -934 -142 -6 6 235 2399 242 2406
4 5 937 151 940 148 1 -1 -7 -78 -18 -170 -11 -95 -17 -172 -12 -176 5 -5 239
-76 519 -160 281 -83 518 -154 528 -157 14 -4 17 1 17 28 0 18 20 172 45 342
24 170 50 368 56 440 14 153 6 378 -15 453 -37 137 -107 223 -229 283 -110 54
-192 70 -357 69 -120 -1 -212 -13 -830 -109z"/>
<path d="M11781 16104 c-294 -46 -535 -85 -537 -87 -5 -5 -456 -4279 -452
-4282 3 -2 1091 165 1094 169 1 0 106 951 233 2111 127 1161 233 2125 236
2143 5 29 3 32 -17 31 -13 0 -263 -39 -557 -85z"/>
<path d="M10270 15885 c-170 -30 -264 -50 -625 -135 -400 -94 -359 -87 -353
-56 4 21 1 26 -14 26 -19 0 -1884 -288 -1902 -293 -5 -2 151 -151 348 -332
319 -294 356 -331 352 -354 -10 -51 -309 -3401 -304 -3406 2 -3 244 32 536 78
468 72 532 84 532 99 0 26 350 3271 353 3273 1 1 176 29 389 62 l387 59 -5
-25 c-11 -66 -95 -873 -91 -877 3 -3 265 145 583 328 l579 333 7 45 c89 544
102 680 78 818 -23 140 -106 259 -220 317 -140 71 -369 85 -630 40z"/>
</g>
</svg>
